# xmcd
#
# Track frame offsets: 
#        150
#        20943
#        45862
#        72853
#        98655
#        114903
#        133729
#        154791
#        172670
#        202017
#
# Disc length: 2868 seconds
#
# Revision: 0
# Processed by: cddbd v1.5.2PL0 Copyright (c) Steve Scherf et al.
# Submitted via: ExactAudioCopy v1.0b3
#
DISCID=7b0b320a
DTITLE=Jimi Barbiani Band - Blue Slide
DYEAR=2014
DGENRE=Blues-Rock
TTITLE0=Ten O'clock Train
TTITLE1=Sixty Nine
TTITLE2=Angel Of Mercy
TTITLE3=Don't Lie To Me
TTITLE4=Going Down
TTITLE5=Sad Soul
TTITLE6=La Grange
TTITLE7=Can't Ask For More
TTITLE8=Ain't But One Of Two Ways
TTITLE9=Looking Good
EXTD=
EXTT0=
EXTT1=
EXTT2=
EXTT3=
EXTT4=
EXTT5=
EXTT6=
EXTT7=
EXTT8=
EXTT9=
PLAYORDER=
